<svg xmlns="http://www.w3.org/2000/svg" fill="none" viewBox="-0.5 -0.5 24 24" height="24" width="24" id="No-Flash-Fill--Streamline-Outlined-Fill---Material-Symbols.svg">
  <path fill="#000000" d="M19.957339583333336 22.017804166666668L17.25 19.310512499999998V20.029262499999998C17.25 20.3167625 17.1462125 20.564347916666666 16.93854166666667 20.771970833333334C16.73091875 20.97959375 16.48338125 21.08342916666667 16.195833333333333 21.08342916666667H2.970857291666667C2.683357291666667 21.08342916666667 2.43578625 20.97959375 2.2281489583333336 20.771970833333334C2.0205116666666667 20.564347916666666 1.916690625 20.3167625 1.916690625 20.029262499999998V10.062595833333333C1.916690625 9.775095833333335 2.0205116666666667 9.527510416666667 2.2281489583333336 9.3198875C2.43578625 9.112264583333333 2.683357291666667 9.008429166666668 2.970857291666667 9.008429166666668H5.989583333333334L6.444791666666666 8.505304166666667L0.622940625 2.683429166666667L1.6531489583333334 1.6532208333333334L20.9875 20.987595833333334L19.957339583333336 22.017804166666668ZM9.439583333333333 11.500095833333333C8.417377083333333 11.5480125 7.546875 11.939347916666666 6.828125 12.674054166666666C6.109375 13.408760416666667 5.75 14.29521875 5.75 15.333429166666667C5.75 16.387595833333336 6.125379166666667 17.290010416666668 6.876041666666667 18.04072083333333C7.626752083333334 18.791431250000002 8.529166666666667 19.1667625 9.583333333333334 19.1667625C10.621543749999999 19.1667625 11.511979166666666 18.811364583333333 12.2546875 18.100616666666667C12.997395833333334 17.38986875 13.392708333333333 16.52334375 13.440625 15.5011375L9.439583333333333 11.500095833333333ZM9.583333333333334 17.7292625C8.912500000000001 17.7292625 8.345502083333333 17.49768125 7.882291666666666 17.034470833333334C7.419129166666667 16.571260416666668 7.1875 16.0042625 7.1875 15.333429166666667C7.1875 14.662595833333334 7.419129166666667 14.095597916666666 7.882291666666666 13.6323875C8.345502083333333 13.169177083333334 8.912500000000001 12.937595833333333 9.583333333333334 12.937595833333333C10.254166666666666 12.937595833333333 10.821212500000001 13.169177083333334 11.284375 13.6323875C11.747585416666666 14.095597916666666 11.979166666666668 14.662595833333334 11.979166666666668 15.333429166666667C11.979166666666668 16.0042625 11.747585416666666 16.571260416666668 11.284375 17.034470833333334C10.821212500000001 17.49768125 10.254166666666666 17.7292625 9.583333333333334 17.7292625ZM17.25 15.189679166666666L9.727083333333335 7.6667625H11.955208333333333L13.177083333333334 9.008429166666668H16.195833333333333C16.48338125 9.008429166666668 16.73091875 9.112264583333333 16.93854166666667 9.3198875C17.1462125 9.527510416666667 17.25 9.775095833333335 17.25 10.062595833333333V15.189679166666666ZM18.543797916666666 9.918845833333334V5.989679166666667H17.825047916666666V1.9167625000000004H21.083333333333336L19.669791666666665 5.127179166666667H21.083333333333336L18.543797916666666 9.918845833333334Z" stroke-width="1"></path>
</svg>